<svg width="11" height="11" viewBox="0 0 11 11" fill="none" xmlns="http://www.w3.org/2000/svg">
<path d="M8.21269 0.939589L5.48528 3.667L2.75787 0.939589C2.42319 0.604913 1.88036 0.604913 1.54569 0.939589L0.939595 1.54568C0.604919 1.88036 0.604919 2.42319 0.939595 2.75786L3.66701 5.48528L0.939595 8.21269C0.604919 8.54736 0.604919 9.09019 0.939595 9.42487L1.54569 10.031C1.88036 10.3656 2.42319 10.3656 2.75787 10.031L5.48528 7.30355L8.21269 10.031C8.54737 10.3656 9.0902 10.3656 9.42488 10.031L10.031 9.42487C10.3656 9.09019 10.3656 8.54736 10.031 8.21269L7.30356 5.48528L10.031 2.75786C10.3656 2.42319 10.3656 1.88036 10.031 1.54568L9.42488 0.939589C9.0902 0.604913 8.54737 0.604913 8.21269 0.939589Z" fill="#313132"/>
</svg>
