<svg width="14" height="12" viewBox="0 0 14 12" fill="none" xmlns="http://www.w3.org/2000/svg">
<path d="M13.75 5.625C13.75 5.07117 13.4465 4.59281 13 4.33313V0.750234C13 0.545156 12.8364 0 12.25 0C12.0831 0 11.9174 0.0557813 11.7817 0.164531L9.78883 1.75898C8.78781 2.55914 7.53109 3 6.25 3H1.75C0.921484 3 0.25 3.67148 0.25 4.5V6.75C0.25 7.57852 0.921484 8.25 1.75 8.25H2.53984C2.50727 8.49562 2.48875 8.74547 2.48875 9C2.48875 9.93211 2.70578 10.8129 3.08781 11.6002C3.20945 11.8507 3.475 12 3.75344 12H5.49438C6.10492 12 6.47149 11.3006 6.10141 10.815C5.71703 10.3106 5.48852 9.68156 5.48852 9C5.48852 8.73961 5.52648 8.4893 5.59188 8.25H6.25C7.53109 8.25 8.78781 8.69086 9.7886 9.49102L11.7815 11.0855C11.9144 11.1918 12.0795 11.2499 12.2498 11.25C12.8338 11.25 12.9998 10.7161 12.9998 10.5V6.91711C13.4465 6.65719 13.75 6.17883 13.75 5.625ZM11.5 8.93953L10.7254 8.31984C9.45977 7.30734 7.87 6.75 6.25 6.75V4.5C7.87 4.5 9.45977 3.94266 10.7254 2.93016L11.5 2.31047V8.93953Z" fill="#67D972"/>
</svg>
