<svg width="42" height="12" viewBox="0 0 42 12" fill="none" xmlns="http://www.w3.org/2000/svg">
<path fill-rule="evenodd" clip-rule="evenodd" d="M3.66025 4.78767C2.67184 4.78767 2.05403 5.63712 2.13123 7.3513L5.0347 6.91887C5.0347 5.43633 4.54056 4.78767 3.66025 4.78767ZM2.2858 8.52508C2.45565 9.74514 3.07332 10.3475 4.29335 10.3475C5.26632 10.3475 6.00781 10.1313 6.45562 9.89966L6.99622 11.3976C6.34752 11.7219 5.42088 12 4.0154 12C1.46724 12 0 10.3165 0 7.6602C0 5.05015 1.35915 3.36681 3.7529 3.36681C6.16208 3.36681 7.38226 5.00388 7.27417 7.81473L2.2858 8.52508Z" fill="#2DA137"/>
<path fill-rule="evenodd" clip-rule="evenodd" d="M13.9146 11.8455L11.2891 6.5791H11.2582V11.8455H8.7717V1.22005H11.2582V6.00772H11.2891L13.961 1.22005H16.5246L13.513 6.1004L16.7254 11.8455H13.9146Z" fill="#2DA137"/>
<path fill-rule="evenodd" clip-rule="evenodd" d="M20.6323 12C18.223 12 16.9568 10.1621 16.9568 7.67563C16.9568 5.18927 18.223 3.36681 20.6169 3.36681C23.0415 3.36681 24.3079 5.18927 24.3079 7.67563C24.3079 10.1621 23.0415 12 20.6323 12ZM20.6323 4.86492C19.5667 4.86492 19.3505 6.1621 19.3505 7.64477C19.3505 9.14289 19.5822 10.3629 20.6323 10.3629C21.698 10.3629 21.9143 9.14289 21.9143 7.64477C21.9143 6.1621 21.698 4.86492 20.6323 4.86492Z" fill="#2DA137"/>
<path fill-rule="evenodd" clip-rule="evenodd" d="M35.0257 11.8455V6.00772C35.0257 5.37448 34.6552 4.88035 33.8211 4.88035C33.4041 4.88035 33.0488 5.00388 32.7709 5.28178V11.8455H30.3617V5.97688C30.3617 5.31278 29.8983 4.88035 29.0643 4.88035C28.632 4.88035 28.3849 4.92663 28.0912 5.03473V11.8455H25.6822V3.98463C26.6088 3.56761 27.5971 3.36681 29.0489 3.36681C30.4233 3.36681 31.2111 3.73742 31.6898 4.20086C32.2147 3.75299 33.0643 3.36681 34.4389 3.36681C36.4158 3.36681 37.4348 4.5406 37.4348 6.00772V11.8455H35.0257Z" fill="#2DA137"/>
<path fill-rule="evenodd" clip-rule="evenodd" d="M39.1486 11.8455H41.5579V3.5212H39.1486V11.8455ZM40.3534 2.25488C39.6427 2.25488 39.0715 1.76059 39.0715 1.12753C39.0715 0.509704 39.6427 0 40.3534 0C41.0638 0 41.635 0.509704 41.635 1.12753C41.635 1.76059 41.0638 2.25488 40.3534 2.25488Z" fill="#2DA137"/>
</svg>
