<svg width="42" height="12" viewBox="0 0 42 12" fill="none" xmlns="http://www.w3.org/2000/svg">
<path fill-rule="evenodd" clip-rule="evenodd" d="M3.84276 4.78768C2.85435 4.78768 2.23654 5.63713 2.31375 7.35131L5.21721 6.91889C5.21721 5.43635 4.72308 4.78768 3.84276 4.78768ZM2.46831 8.52509C2.63817 9.74516 3.25584 10.3475 4.47587 10.3475C5.44884 10.3475 6.19033 10.1313 6.63813 9.89967L7.17874 11.3976C6.53004 11.722 5.6034 12 4.19792 12C1.64976 12 0.182518 10.3165 0.182518 7.66022C0.182518 5.05016 1.54167 3.36682 3.93541 3.36682C6.3446 3.36682 7.56478 5.00389 7.45669 7.81475L2.46831 8.52509Z" fill="white"/>
<path fill-rule="evenodd" clip-rule="evenodd" d="M14.0971 11.8455L11.4716 6.57909H11.4408V11.8455H8.95422V1.22003H11.4408V6.00771H11.4716L14.1435 1.22003H16.7071L13.6955 6.10038L16.908 11.8455H14.0971Z" fill="white"/>
<path fill-rule="evenodd" clip-rule="evenodd" d="M20.8149 12C18.4055 12 17.1393 10.1622 17.1393 7.67564C17.1393 5.18928 18.4055 3.36682 20.7994 3.36682C23.224 3.36682 24.4904 5.18928 24.4904 7.67564C24.4904 10.1622 23.224 12 20.8149 12ZM20.8149 4.86493C19.7492 4.86493 19.5331 6.16212 19.5331 7.64479C19.5331 9.1429 19.7647 10.363 20.8149 10.363C21.8805 10.363 22.0968 9.1429 22.0968 7.64479C22.0968 6.16212 21.8805 4.86493 20.8149 4.86493Z" fill="white"/>
<path fill-rule="evenodd" clip-rule="evenodd" d="M35.2082 11.8455V6.00773C35.2082 5.37449 34.8377 4.88036 34.0036 4.88036C33.5867 4.88036 33.2314 5.00389 32.9534 5.2818V11.8455H30.5442V5.97689C30.5442 5.3128 30.0808 4.88036 29.2468 4.88036C28.8145 4.88036 28.5674 4.92664 28.2737 5.03475V11.8455H25.8647V3.98465C26.7913 3.56762 27.7796 3.36682 29.2314 3.36682C30.6058 3.36682 31.3937 3.73743 31.8723 4.20087C32.3972 3.75301 33.2468 3.36682 34.6214 3.36682C36.5984 3.36682 37.6174 4.54062 37.6174 6.00773V11.8455H35.2082Z" fill="white"/>
<path fill-rule="evenodd" clip-rule="evenodd" d="M39.3311 11.8455H41.7404V3.5212H39.3311V11.8455ZM40.536 2.25488C39.8252 2.25488 39.254 1.76059 39.254 1.12753C39.254 0.509704 39.8252 0 40.536 0C41.2463 0 41.8175 0.509704 41.8175 1.12753C41.8175 1.76059 41.2463 2.25488 40.536 2.25488Z" fill="white"/>
</svg>
